<svg width="64" height="64" viewBox="0 0 64 64" fill="none" xmlns="http://www.w3.org/2000/svg">
<g clip-path="url(#clip0_1_27)">
<path d="M31.8762 0C14.2737 0 0 14.6703 0 32.7675C0 47.2453 9.1335 59.5279 21.799 63.8608C23.392 64.164 23.977 63.1499 23.977 62.2844C23.977 61.5031 23.9473 58.9217 23.9338 56.1837C15.0655 58.1659 13.1943 52.3175 13.1943 52.3175C11.7443 48.53 9.655 47.5231 9.655 47.5231C6.763 45.4893 9.873 45.5309 9.873 45.5309C13.074 45.7622 14.7595 48.9078 14.7595 48.9078C17.6025 53.9173 22.2165 52.4689 24.0355 51.6319C24.3215 49.5138 25.1477 48.0685 26.0592 47.2502C18.9792 46.4214 11.5363 43.6117 11.5363 31.0562C11.5363 27.4789 12.7815 24.5557 14.8208 22.261C14.4898 21.4355 13.3988 18.1029 15.1295 13.5894C15.1295 13.5894 17.8063 12.7087 23.8978 16.9482C26.4403 16.222 29.1672 15.8581 31.8762 15.8458C34.5852 15.8581 37.3143 16.222 39.8618 16.9482C45.946 12.7087 48.619 13.5894 48.619 13.5894C50.354 18.1029 49.2625 21.4355 48.9315 22.261C50.9752 24.5557 52.212 27.4787 52.212 31.0562C52.212 43.6416 44.755 46.4129 37.657 47.224C38.8003 48.2409 39.819 50.2351 39.819 53.292C39.819 57.6763 39.782 61.205 39.782 62.2844C39.782 63.1564 40.3557 64.1781 41.9717 63.8564C54.6302 59.5187 63.7523 47.2404 63.7523 32.7675C63.7523 14.6703 49.4805 0 31.8762 0Z" fill="#F97316"/>
<path d="M11.9387 46.6781C11.8687 46.8408 11.6192 46.8896 11.3925 46.7781C11.1612 46.6712 11.0312 46.4492 11.1062 46.2857C11.175 46.1182 11.4245 46.0714 11.6552 46.184C11.887 46.2906 12.019 46.5147 11.9387 46.6781M13.5067 48.1163C13.3547 48.2612 13.0575 48.1939 12.8557 47.9649C12.6472 47.7364 12.6082 47.4311 12.7625 47.2839C12.9192 47.1392 13.2075 47.2068 13.4165 47.4355C13.625 47.6665 13.6655 47.97 13.5065 48.1165M14.5825 49.9563C14.387 50.0959 14.0675 49.965 13.8702 49.6736C13.675 49.3825 13.675 49.0329 13.8745 48.8929C14.0725 48.7528 14.387 48.8788 14.587 49.1679C14.782 49.4642 14.782 49.8137 14.5822 49.9566M16.4015 52.0875C16.2267 52.2854 15.8547 52.2325 15.5822 51.9621C15.3037 51.6979 15.226 51.323 15.4012 51.1248C15.578 50.9265 15.9522 50.9822 16.2267 51.2503C16.5035 51.5139 16.588 51.8917 16.4017 52.0875M18.7525 52.8071C18.6757 53.0636 18.3172 53.1803 17.9562 53.0713C17.5957 52.959 17.3597 52.6583 17.4325 52.399C17.5075 52.1407 17.8675 52.0192 18.2312 52.1358C18.5912 52.2476 18.8277 52.546 18.7527 52.8071M21.4285 53.1122C21.4375 53.3825 21.1312 53.6066 20.7522 53.6115C20.371 53.62 20.0627 53.4013 20.0587 53.1355C20.0587 52.8626 20.358 52.6406 20.739 52.6341C21.118 52.6264 21.4285 52.8436 21.4285 53.1122M24.057 53.0086C24.1025 53.2723 23.839 53.5431 23.4627 53.6151C23.0927 53.6845 22.7502 53.5218 22.703 53.2604C22.657 52.9901 22.9255 52.7195 23.2947 52.6493C23.6717 52.582 24.009 52.7405 24.057 53.0086" fill="#F97316"/>
</g>
<defs>
<clipPath id="clip0_1_27">
<rect width="64" height="64" fill="white"/>
</clipPath>
</defs>
</svg>
