<svg width="1086" height="127" viewBox="0 0 1086 127" fill="none" xmlns="http://www.w3.org/2000/svg">
<g filter="url(#filter0_b_201_2)">
<path d="M0.712 100V1.65999H21.172V50.896L15.496 48.916L54.832 1.65999H80.44L41.5 48.652L42.688 34.132L81.232 100H57.34L33.316 58.42L21.172 73.072V100H0.712ZM110.9 101.584C105.708 101.584 101.22 100.748 97.436 99.076C93.652 97.404 90.748 95.028 88.724 91.948C86.7 88.78 85.688 85.04 85.688 80.728C85.688 76.68 86.612 73.116 88.46 70.036C90.308 66.868 93.124 64.228 96.908 62.116C100.78 60.004 105.576 58.508 111.296 57.628L133.34 54.064V68.584L114.86 71.884C112.044 72.412 109.888 73.336 108.392 74.656C106.896 75.888 106.148 77.692 106.148 80.068C106.148 82.268 106.984 83.984 108.656 85.216C110.328 86.448 112.396 87.064 114.86 87.064C118.116 87.064 120.976 86.36 123.44 84.952C125.904 83.544 127.796 81.652 129.116 79.276C130.524 76.812 131.228 74.128 131.228 71.224V52.48C131.228 49.752 130.128 47.464 127.928 45.616C125.816 43.768 122.912 42.844 119.216 42.844C115.696 42.844 112.572 43.812 109.844 45.748C107.204 47.684 105.268 50.236 104.036 53.404L88.196 45.88C89.604 41.832 91.848 38.356 94.928 35.452C98.008 32.548 101.704 30.304 106.016 28.72C110.328 27.136 115.036 26.344 120.14 26.344C126.212 26.344 131.58 27.444 136.244 29.644C140.908 31.844 144.516 34.924 147.068 38.884C149.708 42.756 151.028 47.288 151.028 52.48V100H132.548V88.384L137.036 87.592C134.924 90.76 132.592 93.4 130.04 95.512C127.488 97.536 124.628 99.032 121.46 100C118.292 101.056 114.772 101.584 110.9 101.584ZM165.549 100V27.928H184.029V45.484L182.049 42.58C183.105 37.036 185.657 32.944 189.705 30.304C193.753 27.664 198.593 26.344 204.225 26.344C210.209 26.344 215.445 27.884 219.933 30.964C224.509 33.956 227.369 38.004 228.513 43.108L222.837 43.636C225.213 37.74 228.601 33.384 233.001 30.568C237.401 27.752 242.549 26.344 248.445 26.344C253.637 26.344 258.213 27.488 262.173 29.776C266.221 32.064 269.389 35.276 271.677 39.412C273.965 43.46 275.109 48.212 275.109 53.668V100H255.309V57.892C255.309 55.076 254.781 52.656 253.725 50.632C252.757 48.608 251.349 47.024 249.501 45.88C247.653 44.736 245.409 44.164 242.769 44.164C240.217 44.164 237.973 44.736 236.037 45.88C234.189 47.024 232.737 48.608 231.681 50.632C230.713 52.656 230.229 55.076 230.229 57.892V100H210.429V57.892C210.429 55.076 209.901 52.656 208.845 50.632C207.877 48.608 206.469 47.024 204.621 45.88C202.773 44.736 200.529 44.164 197.889 44.164C195.337 44.164 193.093 44.736 191.157 45.88C189.309 47.024 187.857 48.608 186.801 50.632C185.833 52.656 185.349 55.076 185.349 57.892V100H165.549ZM288.139 126.4V27.928H306.619V41.656L304.903 37.696C307.279 34.088 310.491 31.316 314.539 29.38C318.675 27.356 323.383 26.344 328.663 26.344C335.527 26.344 341.731 28.016 347.275 31.36C352.819 34.704 357.219 39.236 360.475 44.956C363.731 50.588 365.359 56.924 365.359 63.964C365.359 70.916 363.731 77.252 360.475 82.972C357.307 88.692 352.951 93.224 347.407 96.568C341.863 99.912 335.571 101.584 328.531 101.584C323.603 101.584 319.027 100.704 314.803 98.944C310.667 97.096 307.323 94.412 304.771 90.892L307.939 86.8V126.4H288.139ZM326.155 83.764C329.851 83.764 333.107 82.928 335.923 81.256C338.739 79.584 340.939 77.252 342.523 74.26C344.107 71.268 344.899 67.836 344.899 63.964C344.899 60.092 344.107 56.704 342.523 53.8C340.939 50.808 338.739 48.476 335.923 46.804C333.107 45.044 329.851 44.164 326.155 44.164C322.635 44.164 319.467 45 316.651 46.672C313.923 48.344 311.767 50.676 310.183 53.668C308.687 56.66 307.939 60.092 307.939 63.964C307.939 67.836 308.687 71.268 310.183 74.26C311.767 77.252 313.923 79.584 316.651 81.256C319.467 82.928 322.635 83.764 326.155 83.764ZM402.827 101.584C397.019 101.584 392.047 100.352 387.911 97.888C383.863 95.336 380.783 91.816 378.671 87.328C376.559 82.84 375.503 77.604 375.503 71.62V27.928H395.303V70.036C395.303 72.764 395.831 75.184 396.887 77.296C398.031 79.32 399.615 80.904 401.639 82.048C403.663 83.192 405.951 83.764 408.503 83.764C411.143 83.764 413.431 83.192 415.367 82.048C417.391 80.904 418.931 79.32 419.987 77.296C421.131 75.184 421.703 72.764 421.703 70.036V27.928H441.503V100H423.023V85.744L424.079 88.912C422.407 93.224 419.679 96.436 415.895 98.548C412.199 100.572 407.843 101.584 402.827 101.584ZM484.223 101.584C476.303 101.584 469.395 99.736 463.499 96.04C457.691 92.256 453.731 87.196 451.619 80.86L466.139 73.996C467.987 77.868 470.495 80.904 473.663 83.104C476.831 85.304 480.351 86.404 484.223 86.404C487.039 86.404 489.195 85.832 490.691 84.688C492.187 83.544 492.935 81.96 492.935 79.936C492.935 78.88 492.671 78 492.143 77.296C491.615 76.504 490.823 75.8 489.767 75.184C488.711 74.568 487.391 74.04 485.807 73.6L473.531 70.168C467.635 68.496 463.103 65.812 459.935 62.116C456.767 58.332 455.183 53.888 455.183 48.784C455.183 44.296 456.327 40.38 458.615 37.036C460.903 33.692 464.115 31.096 468.251 29.248C472.387 27.312 477.139 26.344 482.507 26.344C489.547 26.344 495.707 28.016 500.987 31.36C506.355 34.616 510.139 39.236 512.339 45.22L497.687 52.084C496.631 49.092 494.695 46.716 491.879 44.956C489.151 43.108 486.027 42.184 482.507 42.184C479.955 42.184 477.931 42.712 476.435 43.768C475.027 44.824 474.323 46.276 474.323 48.124C474.323 49.092 474.587 49.972 475.115 50.764C475.643 51.556 476.479 52.26 477.623 52.876C478.855 53.492 480.351 54.064 482.111 54.592L493.595 58.024C499.579 59.784 504.155 62.468 507.323 66.076C510.491 69.596 512.075 73.952 512.075 79.144C512.075 83.632 510.887 87.548 508.511 90.892C506.223 94.236 503.011 96.876 498.875 98.812C494.739 100.66 489.855 101.584 484.223 101.584ZM525.36 100V1.65999H545.16L581.988 50.5H572.748L608.52 1.65999H628.32V100H607.86V24.232L616.044 26.08L578.16 74.92H575.52L538.956 26.08L545.82 24.232V100H525.36ZM679.023 101.584C671.367 101.584 664.723 99.912 659.091 96.568C653.459 93.136 649.103 88.56 646.023 82.84C642.943 77.12 641.403 70.784 641.403 63.832C641.403 56.616 642.987 50.192 646.155 44.56C649.411 38.928 653.767 34.484 659.223 31.228C664.679 27.972 670.839 26.344 677.703 26.344C683.423 26.344 688.483 27.268 692.883 29.116C697.283 30.876 700.979 33.384 703.971 36.64C707.051 39.896 709.383 43.68 710.967 47.992C712.551 52.216 713.343 56.836 713.343 61.852C713.343 63.26 713.255 64.668 713.079 66.076C712.991 67.396 712.771 68.54 712.419 69.508H658.431V54.988H701.199L691.827 61.852C692.707 58.068 692.663 54.724 691.695 51.82C690.727 48.828 689.011 46.496 686.547 44.824C684.171 43.064 681.223 42.184 677.703 42.184C674.271 42.184 671.323 43.02 668.859 44.692C666.395 46.364 664.547 48.828 663.315 52.084C662.083 55.34 661.599 59.3 661.863 63.964C661.511 68.012 661.995 71.576 663.315 74.656C664.635 77.736 666.659 80.156 669.387 81.916C672.115 83.588 675.415 84.424 679.287 84.424C682.807 84.424 685.799 83.72 688.263 82.312C690.815 80.904 692.795 78.968 694.203 76.504L710.043 84.028C708.635 87.548 706.391 90.628 703.311 93.268C700.319 95.908 696.755 97.976 692.619 99.472C688.483 100.88 683.951 101.584 679.023 101.584ZM725.002 100V27.928H743.482V45.22L742.162 42.712C743.746 36.64 746.342 32.548 749.95 30.436C753.646 28.236 758.002 27.136 763.018 27.136H767.242V44.296H761.038C756.198 44.296 752.282 45.792 749.29 48.784C746.298 51.688 744.802 55.824 744.802 61.192V100H725.002ZM809.844 101.584C802.804 101.584 796.512 99.912 790.968 96.568C785.424 93.224 781.024 88.692 777.768 82.972C774.6 77.252 773.016 70.916 773.016 63.964C773.016 56.924 774.644 50.588 777.9 44.956C781.156 39.236 785.556 34.704 791.1 31.36C796.644 28.016 802.848 26.344 809.712 26.344C814.992 26.344 819.656 27.356 823.704 29.38C827.84 31.316 831.096 34.088 833.472 37.696L830.436 41.656V0.0759962H850.236V100H831.756V86.8L833.604 90.892C831.14 94.412 827.796 97.096 823.572 98.944C819.348 100.704 814.772 101.584 809.844 101.584ZM812.22 83.764C815.828 83.764 818.996 82.928 821.724 81.256C824.452 79.584 826.564 77.252 828.06 74.26C829.644 71.268 830.436 67.836 830.436 63.964C830.436 60.092 829.644 56.66 828.06 53.668C826.564 50.676 824.452 48.344 821.724 46.672C818.996 45 815.828 44.164 812.22 44.164C808.612 44.164 805.356 45.044 802.452 46.804C799.636 48.476 797.436 50.808 795.852 53.8C794.268 56.704 793.476 60.092 793.476 63.964C793.476 67.836 794.268 71.268 795.852 74.26C797.436 77.252 799.636 79.584 802.452 81.256C805.356 82.928 808.612 83.764 812.22 83.764ZM899.453 101.584C891.797 101.584 885.153 99.912 879.521 96.568C873.889 93.136 869.533 88.56 866.453 82.84C863.373 77.12 861.833 70.784 861.833 63.832C861.833 56.616 863.417 50.192 866.585 44.56C869.841 38.928 874.197 34.484 879.653 31.228C885.109 27.972 891.269 26.344 898.133 26.344C903.853 26.344 908.913 27.268 913.313 29.116C917.713 30.876 921.409 33.384 924.401 36.64C927.481 39.896 929.813 43.68 931.397 47.992C932.981 52.216 933.773 56.836 933.773 61.852C933.773 63.26 933.685 64.668 933.509 66.076C933.421 67.396 933.201 68.54 932.849 69.508H878.861V54.988H921.629L912.257 61.852C913.137 58.068 913.093 54.724 912.125 51.82C911.157 48.828 909.441 46.496 906.977 44.824C904.601 43.064 901.653 42.184 898.133 42.184C894.701 42.184 891.753 43.02 889.289 44.692C886.825 46.364 884.977 48.828 883.745 52.084C882.513 55.34 882.029 59.3 882.293 63.964C881.941 68.012 882.425 71.576 883.745 74.656C885.065 77.736 887.089 80.156 889.817 81.916C892.545 83.588 895.845 84.424 899.717 84.424C903.237 84.424 906.229 83.72 908.693 82.312C911.245 80.904 913.225 78.968 914.633 76.504L930.473 84.028C929.065 87.548 926.821 90.628 923.741 93.268C920.749 95.908 917.185 97.976 913.049 99.472C908.913 100.88 904.381 101.584 899.453 101.584ZM945.432 100V0.0759962H965.232V64.096L957.84 61.72L989.652 27.928H1014.07L987.936 56.968L1013.94 100H991.5L969.72 63.436L981.204 60.532L959.16 84.556L965.232 73.072V100H945.432ZM1045.08 101.584C1039.89 101.584 1035.4 100.748 1031.62 99.076C1027.84 97.404 1024.93 95.028 1022.91 91.948C1020.88 88.78 1019.87 85.04 1019.87 80.728C1019.87 76.68 1020.8 73.116 1022.64 70.036C1024.49 66.868 1027.31 64.228 1031.09 62.116C1034.96 60.004 1039.76 58.508 1045.48 57.628L1067.52 54.064V68.584L1049.04 71.884C1046.23 72.412 1044.07 73.336 1042.58 74.656C1041.08 75.888 1040.33 77.692 1040.33 80.068C1040.33 82.268 1041.17 83.984 1042.84 85.216C1044.51 86.448 1046.58 87.064 1049.04 87.064C1052.3 87.064 1055.16 86.36 1057.62 84.952C1060.09 83.544 1061.98 81.652 1063.3 79.276C1064.71 76.812 1065.41 74.128 1065.41 71.224V52.48C1065.41 49.752 1064.31 47.464 1062.11 45.616C1060 43.768 1057.1 42.844 1053.4 42.844C1049.88 42.844 1046.76 43.812 1044.03 45.748C1041.39 47.684 1039.45 50.236 1038.22 53.404L1022.38 45.88C1023.79 41.832 1026.03 38.356 1029.11 35.452C1032.19 32.548 1035.89 30.304 1040.2 28.72C1044.51 27.136 1049.22 26.344 1054.32 26.344C1060.4 26.344 1065.76 27.444 1070.43 29.644C1075.09 31.844 1078.7 34.924 1081.25 38.884C1083.89 42.756 1085.21 47.288 1085.21 52.48V100H1066.73V88.384L1071.22 87.592C1069.11 90.76 1066.78 93.4 1064.22 95.512C1061.67 97.536 1058.81 99.032 1055.64 100C1052.48 101.056 1048.96 101.584 1045.08 101.584Z" fill="black"/>
</g>
<defs>
<filter id="filter0_b_201_2" x="-3.28796" y="-3.92407" width="1092.5" height="134.324" filterUnits="userSpaceOnUse" color-interpolation-filters="sRGB">
<feFlood flood-opacity="0" result="BackgroundImageFix"/>
<feGaussianBlur in="BackgroundImageFix" stdDeviation="2"/>
<feComposite in2="SourceAlpha" operator="in" result="effect1_backgroundBlur_201_2"/>
<feBlend mode="normal" in="SourceGraphic" in2="effect1_backgroundBlur_201_2" result="shape"/>
</filter>
</defs>
</svg>
