<svg width="160" height="99" viewBox="0 0 160 99" fill="none" xmlns="http://www.w3.org/2000/svg">
<g filter="url(#filter0_b_201_103)">
<path d="M28.832 99L0.452 26.928H21.836L41.504 81.444H33.32L52.988 26.928H74.372L45.992 99H28.832ZM123.612 99V77.88H80.0521V60.72L122.292 0.659992H144.072V60.72H159.252V77.88H144.072V99H123.612ZM94.9681 68.112L91.1401 60.72H123.612V16.5L128.76 18.084L94.9681 68.112Z" fill="black"/>
<path d="M28.832 99L27.9015 99.3664L28.151 100H28.832V99ZM0.452 26.928V25.928H-1.01651L-0.478461 27.2944L0.452 26.928ZM21.836 26.928L22.7767 26.5886L22.5383 25.928H21.836V26.928ZM41.504 81.444V82.444H42.9279L42.4447 81.1046L41.504 81.444ZM33.32 81.444L32.3793 81.1046L31.8961 82.444H33.32V81.444ZM52.988 26.928V25.928H52.2857L52.0473 26.5886L52.988 26.928ZM74.372 26.928L75.3025 27.2944L75.8405 25.928H74.372V26.928ZM45.992 99V100H46.673L46.9225 99.3664L45.992 99ZM29.7625 98.6336L1.38246 26.5616L-0.478461 27.2944L27.9015 99.3664L29.7625 98.6336ZM0.452 27.928H21.836V25.928H0.452V27.928ZM20.8953 27.2674L40.5633 81.7834L42.4447 81.1046L22.7767 26.5886L20.8953 27.2674ZM41.504 80.444H33.32V82.444H41.504V80.444ZM34.2607 81.7834L53.9287 27.2674L52.0473 26.5886L32.3793 81.1046L34.2607 81.7834ZM52.988 27.928H74.372V25.928H52.988V27.928ZM73.4415 26.5616L45.0615 98.6336L46.9225 99.3664L75.3025 27.2944L73.4415 26.5616ZM45.992 98H28.832V100H45.992V98ZM123.612 99H122.612V100H123.612V99ZM123.612 77.88H124.612V76.88H123.612V77.88ZM80.0521 77.88H79.0521V78.88H80.0521V77.88ZM80.0521 60.72L79.2342 60.1447L79.0521 60.4036V60.72H80.0521ZM122.292 0.659992V-0.340008H121.773L121.474 0.0847208L122.292 0.659992ZM144.072 0.659992H145.072V-0.340008H144.072V0.659992ZM144.072 60.72H143.072V61.72H144.072V60.72ZM159.252 60.72H160.252V59.72H159.252V60.72ZM159.252 77.88V78.88H160.252V77.88H159.252ZM144.072 77.88V76.88H143.072V77.88H144.072ZM144.072 99V100H145.072V99H144.072ZM94.9681 68.112L94.0801 68.5719L94.8544 70.067L95.7968 68.6717L94.9681 68.112ZM91.1401 60.72V59.72H89.4961L90.2521 61.1799L91.1401 60.72ZM123.612 60.72V61.72H124.612V60.72H123.612ZM123.612 16.5L123.906 15.5442L122.612 15.146V16.5H123.612ZM128.76 18.084L129.589 18.6437L130.344 17.5252L129.054 17.1282L128.76 18.084ZM124.612 99V77.88H122.612V99H124.612ZM123.612 76.88H80.0521V78.88H123.612V76.88ZM81.0521 77.88V60.72H79.0521V77.88H81.0521ZM80.8701 61.2953L123.11 1.23526L121.474 0.0847208L79.2342 60.1447L80.8701 61.2953ZM122.292 1.65999H144.072V-0.340008H122.292V1.65999ZM143.072 0.659992V60.72H145.072V0.659992H143.072ZM144.072 61.72H159.252V59.72H144.072V61.72ZM158.252 60.72V77.88H160.252V60.72H158.252ZM159.252 76.88H144.072V78.88H159.252V76.88ZM143.072 77.88V99H145.072V77.88H143.072ZM144.072 98H123.612V100H144.072V98ZM95.8561 67.6521L92.0281 60.2601L90.2521 61.1799L94.0801 68.5719L95.8561 67.6521ZM91.1401 61.72H123.612V59.72H91.1401V61.72ZM124.612 60.72V16.5H122.612V60.72H124.612ZM123.318 17.4558L128.466 19.0398L129.054 17.1282L123.906 15.5442L123.318 17.4558ZM127.931 17.5243L94.1395 67.5523L95.7968 68.6717L129.589 18.6437L127.931 17.5243Z" fill="black"/>
</g>
<defs>
<filter id="filter0_b_201_103" x="-3.548" y="-3.34009" width="166.8" height="106.34" filterUnits="userSpaceOnUse" color-interpolation-filters="sRGB">
<feFlood flood-opacity="0" result="BackgroundImageFix"/>
<feGaussianBlur in="BackgroundImageFix" stdDeviation="2"/>
<feComposite in2="SourceAlpha" operator="in" result="effect1_backgroundBlur_201_103"/>
<feBlend mode="normal" in="SourceGraphic" in2="effect1_backgroundBlur_201_103" result="shape"/>
</filter>
</defs>
</svg>
